P3 4 4 255 0 0 0 62 31 52 59 26 50 0 0 0 7 0 4 136 130 130 134 128 129 7 0 3 30 0 37 134 125 128 146 141 136 39 2 40 0 0 3 22 0 21 36 12 34 10 0 15 