P3
# 8-bit ppm - RGB
4 4
255
 46  19  47 112  81 102 109  76 100  50  19  49
 57  23  54 186 180 180 184 178 179  57  19  53
 80  47  87 184 175 178 196 191 186  89  52  90
 47  29  53  72  46  71  86  62  84  60  39  65
