P3 4 4 255 46 46 46 112 112 112 109 109 109 50 50 50 57 57 57 186 186 186 184 184 184 57 57 57 80 80 80 184 184 184 196 196 196 89 89 89 47 47 47 72 72 72 86 86 86 60 60 60 