P3 4 4 255 37 37 37 98 98 98 95 95 95 39 39 39 45 45 45 182 182 182 180 180 180 43 43 43 71 71 71 179 179 179 191 191 191 77 77 77 43 43 43 63 63 63 77 77 77 55 55 55 