P3 4 4 255 19 19 19 81 81 81 76 76 76 19 19 19 23 23 23 180 180 180 178 178 178 19 19 19 47 47 47 175 175 175 191 191 191 52 52 52 29 29 29 46 46 46 62 62 62 39 39 39 