P3 4 4 255 39 4 36 171 133 156 172 129 157 39 0 37 120 71 113 255 255 255 255 255 255 124 73 115 125 83 133 255 255 255 255 255 255 146 101 148 43 18 52 139 110 140 160 129 157 68 43 76 