P3 4 4 255 27 27 27 89 89 89 85 85 85 28 28 28 32 32 32 181 181 181 179 179 179 30 30 30 57 57 57 177 177 177 192 192 192 63 63 63 35 35 35 53 53 53 69 69 69 45 45 45 