P3 4 4 255 47 47 47 112 112 112 109 109 109 50 50 50 57 57 57 186 186 186 184 184 184 57 57 57 87 87 87 184 184 184 196 196 196 90 90 90 53 53 53 72 72 72 86 86 86 65 65 65 