P3 4 4 255 50 19 49 109 76 100 112 81 102 46 19 47 57 19 53 184 178 179 186 180 180 57 23 54 89 52 90 196 191 186 184 175 178 80 47 87 60 39 65 86 62 84 72 46 71 47 29 53 