P3 4 4 255 47 47 47 102 102 102 100 100 100 49 49 49 54 54 54 180 180 180 179 179 179 53 53 53 87 87 87 178 178 178 186 186 186 90 90 90 53 53 53 71 71 71 84 84 84 65 65 65 